<?xml version="1.0" encoding="UTF-8" standalone="no"?>
<!DOCTYPE svg PUBLIC "-//W3C//DTD SVG 1.1//EN"
 "http://www.w3.org/Graphics/SVG/1.1/DTD/svg11.dtd">
<!-- Generated by graphviz version 12.2.1 (20241206.2353)
 -->
<!-- Pages: 1 -->
<svg width="719pt" height="1156pt"
 viewBox="0.00 0.00 719.25 1156.00" xmlns="http://www.w3.org/2000/svg" xmlns:xlink="http://www.w3.org/1999/xlink">
<g id="graph0" class="graph" transform="scale(1 1) rotate(0) translate(4 1152)">
<polygon fill="white" stroke="none" points="-4,4 -4,-1152 715.25,-1152 715.25,4 -4,4"/>
<!-- 0 -->
<g id="node1" class="node">
<title>0</title>
<ellipse fill="none" stroke="blue" cx="355.62" cy="-1130" rx="44.08" ry="18"/>
<text text-anchor="middle" x="355.62" y="-1126.47" font-family="helvetica, verdana" font-size="12.00">DF input</text>
</g>
<!-- 1 -->
<g id="node2" class="node">
<title>1</title>
<path fill="none" stroke="black" d="M419.12,-1076C419.12,-1076 292.12,-1076 292.12,-1076 286.12,-1076 280.12,-1070 280.12,-1064 280.12,-1064 280.12,-1014 280.12,-1014 280.12,-1008 286.12,-1002 292.12,-1002 292.12,-1002 419.12,-1002 419.12,-1002 425.12,-1002 431.12,-1008 431.12,-1014 431.12,-1014 431.12,-1064 431.12,-1064 431.12,-1070 425.12,-1076 419.12,-1076"/>
<text text-anchor="start" x="338.38" y="-1061.6" font-family="helvetica, verdana" font-weight="bold" font-size="12.00">Filter</text>
<text text-anchor="start" x="288.12" y="-1051.5" font-family="helvetica, verdana" font-style="italic" font-size="10.00">Filter out invalid quantities</text>
<text text-anchor="start" x="288.12" y="-1040.55" font-family="Courier,monospace" font-size="11.00" fill="purple">input_col: </text>
<text text-anchor="start" x="362.38" y="-1040.55" font-family="Courier,monospace" font-size="11.00">quantity</text>
<text text-anchor="start" x="288.12" y="-1029.55" font-family="Courier,monospace" font-size="11.00" fill="purple">operator: </text>
<text text-anchor="start" x="355.62" y="-1029.55" font-family="Courier,monospace" font-size="11.00">gt</text>
<text text-anchor="start" x="288.12" y="-1018.55" font-family="Courier,monospace" font-size="11.00" fill="purple">perform: </text>
<text text-anchor="start" x="348.88" y="-1018.55" font-family="Courier,monospace" font-size="11.00">keep</text>
<text text-anchor="start" x="288.12" y="-1007.55" font-family="Courier,monospace" font-size="11.00" fill="purple">value: </text>
<text text-anchor="start" x="335.38" y="-1007.55" font-family="Courier,monospace" font-size="11.00">0</text>
</g>
<!-- 0&#45;&gt;1 -->
<g id="edge1" class="edge">
<title>0&#45;&gt;1</title>
<path fill="none" stroke="black" d="M355.62,-1111.84C355.62,-1104.82 355.62,-1096.31 355.62,-1087.64"/>
<polygon fill="black" stroke="black" points="359.13,-1087.78 355.63,-1077.78 352.13,-1087.78 359.13,-1087.78"/>
</g>
<!-- 2 -->
<g id="node3" class="node">
<title>2</title>
<polygon fill="none" stroke="black" points="530.26,-940.54 530.26,-955.46 427.96,-966 283.29,-966 180.99,-955.46 180.99,-940.54 283.29,-930 427.96,-930 530.26,-940.54"/>
<text text-anchor="middle" x="355.62" y="-944.48" font-family="helvetica, verdana" font-size="12.00">Branch from storage &#39;customer_tiers&#39;</text>
</g>
<!-- 1&#45;&gt;2 -->
<g id="edge2" class="edge">
<title>1&#45;&gt;2</title>
<path fill="none" stroke="black" d="M355.62,-1001.54C355.62,-993.48 355.62,-985.05 355.62,-977.36"/>
<polygon fill="black" stroke="black" points="359.13,-977.57 355.63,-967.57 352.13,-977.57 359.13,-977.57"/>
</g>
<!-- 3 -->
<g id="node4" class="node">
<title>3</title>
<text text-anchor="middle" x="328.62" y="-872.48" font-family="helvetica, verdana" font-size="12.00">[Main]</text>
</g>
<!-- 2&#45;&gt;3 -->
<g id="edge3" class="edge">
<title>2&#45;&gt;3</title>
<path fill="none" stroke="black" d="M348.95,-929.7C346,-922.04 342.45,-912.85 339.16,-904.3"/>
<polygon fill="black" stroke="black" points="342.45,-903.1 335.58,-895.03 335.91,-905.62 342.45,-903.1"/>
</g>
<!-- 5 -->
<g id="node6" class="node">
<title>5</title>
<path fill="none" stroke="#067d17" d="M402.25,-722C402.25,-722 309,-722 309,-722 303,-722 297,-716 297,-710 297,-710 297,-692 297,-692 297,-686 303,-680 309,-680 309,-680 402.25,-680 402.25,-680 408.25,-680 414.25,-686 414.25,-692 414.25,-692 414.25,-710 414.25,-710 414.25,-716 408.25,-722 402.25,-722"/>
<text text-anchor="start" x="342.12" y="-707.6" font-family="helvetica, verdana" font-weight="bold" font-size="12.00">Join</text>
<text text-anchor="start" x="305" y="-696.55" font-family="Courier,monospace" font-size="11.00" fill="purple">how: </text>
<text text-anchor="start" x="338.75" y="-696.55" font-family="Courier,monospace" font-size="11.00">left</text>
<text text-anchor="start" x="305" y="-685.55" font-family="Courier,monospace" font-size="11.00" fill="purple">on: </text>
<text text-anchor="start" x="332" y="-685.55" font-family="Courier,monospace" font-size="11.00">customer_id</text>
</g>
<!-- 2&#45;&gt;5 -->
<g id="edge6" class="edge">
<title>2&#45;&gt;5</title>
<path fill="none" stroke="black" d="M362.55,-929.62C374.95,-896.09 398.33,-820.31 383.62,-758 381.58,-749.32 377.96,-740.45 374,-732.41"/>
<polygon fill="black" stroke="black" points="377.18,-730.93 369.4,-723.73 370.99,-734.2 377.18,-730.93"/>
</g>
<!-- 4 -->
<g id="node5" class="node">
<title>4</title>
<path fill="none" stroke="black" d="M363,-822C363,-822 256.25,-822 256.25,-822 250.25,-822 244.25,-816 244.25,-810 244.25,-810 244.25,-770 244.25,-770 244.25,-764 250.25,-758 256.25,-758 256.25,-758 363,-758 363,-758 369,-758 375,-764 375,-770 375,-770 375,-810 375,-810 375,-816 369,-822 363,-822"/>
<text text-anchor="start" x="260.88" y="-807.6" font-family="helvetica, verdana" font-weight="bold" font-size="12.00">SelectColumns</text>
<text text-anchor="start" x="252.25" y="-796.55" font-family="Courier,monospace" font-size="11.00" fill="purple">columns: </text>
<text text-anchor="start" x="313" y="-796.55" font-family="Courier,monospace" font-size="11.00"> &#160;</text>
<text text-anchor="start" x="252.25" y="-785.55" font-family="Courier,monospace" font-size="11.00"> &#160;&#45; customer_id &#160;</text>
<text text-anchor="start" x="252.25" y="-774.55" font-family="Courier,monospace" font-size="11.00"> &#160;&#45; tier &#160;</text>
<text text-anchor="start" x="252.25" y="-763.55" font-family="Courier,monospace" font-size="11.00"> &#160;&#45; discount_rate</text>
</g>
<!-- 3&#45;&gt;4 -->
<g id="edge4" class="edge">
<title>3&#45;&gt;4</title>
<path fill="none" stroke="black" d="M324.78,-858C323.15,-850.79 321.17,-842.03 319.18,-833.25"/>
<polygon fill="black" stroke="black" points="322.65,-832.7 317.03,-823.72 315.82,-834.25 322.65,-832.7"/>
</g>
<!-- 4&#45;&gt;5 -->
<g id="edge5" class="edge">
<title>4&#45;&gt;5</title>
<path fill="none" stroke="black" d="M326.23,-757.59C330.61,-749.31 335.33,-740.39 339.67,-732.18"/>
<polygon fill="black" stroke="black" points="342.63,-734.06 344.21,-723.58 336.44,-730.79 342.63,-734.06"/>
</g>
<!-- 6 -->
<g id="node7" class="node">
<title>6</title>
<path fill="none" stroke="orange" d="M492.25,-640.73C492.25,-642.53 431.01,-644 355.62,-644 280.24,-644 219,-642.53 219,-640.73 219,-640.73 219,-611.27 219,-611.27 219,-609.47 280.24,-608 355.62,-608 431.01,-608 492.25,-609.47 492.25,-611.27 492.25,-611.27 492.25,-640.73 492.25,-640.73"/>
<path fill="none" stroke="orange" d="M492.25,-640.73C492.25,-638.92 431.01,-637.45 355.62,-637.45 280.24,-637.45 219,-638.92 219,-640.73"/>
<text text-anchor="middle" x="355.62" y="-622.48" font-family="helvetica, verdana" font-size="12.00">Store df (debug) with key &quot;df&#45;before&#45;split&quot;</text>
</g>
<!-- 5&#45;&gt;6 -->
<g id="edge7" class="edge">
<title>5&#45;&gt;6</title>
<path fill="none" stroke="black" d="M355.62,-679.67C355.62,-672.18 355.62,-663.56 355.62,-655.49"/>
<polygon fill="black" stroke="black" points="359.13,-655.77 355.63,-645.77 352.13,-655.77 359.13,-655.77"/>
</g>
<!-- 7 -->
<g id="node8" class="node">
<title>7</title>
<polygon fill="none" stroke="black" points="473.64,-559.56 355.62,-572 237.61,-559.56 237.72,-539.44 473.53,-539.44 473.64,-559.56"/>
<text text-anchor="middle" x="355.62" y="-550.48" font-family="helvetica, verdana" font-size="12.00">Split: split_by_region</text>
</g>
<!-- 6&#45;&gt;7 -->
<g id="edge8" class="edge">
<title>6&#45;&gt;7</title>
<path fill="none" stroke="black" d="M355.62,-607.7C355.62,-600.41 355.62,-591.73 355.62,-583.54"/>
<polygon fill="black" stroke="black" points="359.13,-583.62 355.63,-573.62 352.13,-583.62 359.13,-583.62"/>
</g>
<!-- 8 -->
<g id="node9" class="node">
<title>8</title>
<text text-anchor="middle" x="197.62" y="-478.48" font-family="helvetica, verdana" font-size="12.00">[Apac]</text>
</g>
<!-- 7&#45;&gt;8 -->
<g id="edge9" class="edge">
<title>7&#45;&gt;8</title>
<path fill="none" stroke="black" d="M324.03,-539C298.59,-527.73 262.74,-511.85 235.71,-499.88"/>
<polygon fill="black" stroke="black" points="237.41,-496.8 226.85,-495.95 234.57,-503.2 237.41,-496.8"/>
</g>
<!-- 10 -->
<g id="node11" class="node">
<title>10</title>
<text text-anchor="middle" x="355.62" y="-478.48" font-family="helvetica, verdana" font-size="12.00">[Eu]</text>
</g>
<!-- 7&#45;&gt;10 -->
<g id="edge11" class="edge">
<title>7&#45;&gt;10</title>
<path fill="none" stroke="black" d="M355.62,-539.17C355.62,-531.13 355.62,-520.69 355.62,-511"/>
<polygon fill="black" stroke="black" points="359.13,-511.28 355.63,-501.28 352.13,-511.28 359.13,-511.28"/>
</g>
<!-- 12 -->
<g id="node13" class="node">
<title>12</title>
<text text-anchor="middle" x="512.62" y="-478.48" font-family="helvetica, verdana" font-size="12.00">[Us]</text>
</g>
<!-- 7&#45;&gt;12 -->
<g id="edge13" class="edge">
<title>7&#45;&gt;12</title>
<path fill="none" stroke="black" d="M387.02,-539C412.54,-527.63 448.59,-511.55 475.53,-499.54"/>
<polygon fill="black" stroke="black" points="476.64,-502.88 484.35,-495.61 473.79,-496.48 476.64,-502.88"/>
</g>
<!-- 9 -->
<g id="node10" class="node">
<title>9</title>
<path fill="none" stroke="black" d="M213.25,-428C213.25,-428 12,-428 12,-428 6,-428 0,-422 0,-416 0,-416 0,-343 0,-343 0,-337 6,-331 12,-331 12,-331 213.25,-331 213.25,-331 219.25,-331 225.25,-337 225.25,-343 225.25,-343 225.25,-416 225.25,-416 225.25,-422 219.25,-428 213.25,-428"/>
<text text-anchor="start" x="65.75" y="-413.6" font-family="helvetica, verdana" font-weight="bold" font-size="12.00">MathOperator</text>
<text text-anchor="start" x="8" y="-402.55" font-family="Courier,monospace" font-size="11.00" fill="purple">strategy: </text>
<text text-anchor="start" x="75.5" y="-402.55" font-family="Courier,monospace" font-size="11.00"> &#160;</text>
<text text-anchor="start" x="8" y="-391.55" font-family="Courier,monospace" font-size="11.00"> &#160;new_column_name: tax_amount &#160;</text>
<text text-anchor="start" x="8" y="-380.55" font-family="Courier,monospace" font-size="11.00"> &#160;operations: &#160;</text>
<text text-anchor="start" x="8" y="-369.55" font-family="Courier,monospace" font-size="11.00"> &#160;&#45; mul &#160;</text>
<text text-anchor="start" x="8" y="-358.55" font-family="Courier,monospace" font-size="11.00"> &#160;strategy: &#160;</text>
<text text-anchor="start" x="8" y="-347.55" font-family="Courier,monospace" font-size="11.00"> &#160;&#45; column: amount &#160;</text>
<text text-anchor="start" x="8" y="-336.55" font-family="Courier,monospace" font-size="11.00"> &#160;&#45; constant: 0.1</text>
</g>
<!-- 8&#45;&gt;9 -->
<g id="edge10" class="edge">
<title>8&#45;&gt;9</title>
<path fill="none" stroke="black" d="M183.59,-464.4C177.03,-456.65 168.8,-446.92 160.29,-436.86"/>
<polygon fill="black" stroke="black" points="163.21,-434.89 154.08,-429.52 157.87,-439.41 163.21,-434.89"/>
</g>
<!-- 14 -->
<g id="node15" class="node">
<title>14</title>
<path fill="none" stroke="#067d17" d="M390.62,-295C390.62,-295 320.62,-295 320.62,-295 314.62,-295 308.62,-289 308.62,-283 308.62,-283 308.62,-271 308.62,-271 308.62,-265 314.62,-259 320.62,-259 320.62,-259 390.62,-259 390.62,-259 396.62,-259 402.62,-265 402.62,-271 402.62,-271 402.62,-283 402.62,-283 402.62,-289 396.62,-295 390.62,-295"/>
<text text-anchor="start" x="316.62" y="-274.48" font-family="helvetica, verdana" font-weight="bold" font-size="12.00">Append DFs</text>
</g>
<!-- 9&#45;&gt;14 -->
<g id="edge15" class="edge">
<title>9&#45;&gt;14</title>
<path fill="none" stroke="black" d="M225.59,-331.78C252.66,-320.58 280.3,-309.15 303.09,-299.73"/>
<polygon fill="black" stroke="black" points="304.23,-303.04 312.14,-295.99 301.56,-296.57 304.23,-303.04"/>
</g>
<!-- 11 -->
<g id="node12" class="node">
<title>11</title>
<path fill="none" stroke="black" d="M456.25,-428C456.25,-428 255,-428 255,-428 249,-428 243,-422 243,-416 243,-416 243,-343 243,-343 243,-337 249,-331 255,-331 255,-331 456.25,-331 456.25,-331 462.25,-331 468.25,-337 468.25,-343 468.25,-343 468.25,-416 468.25,-416 468.25,-422 462.25,-428 456.25,-428"/>
<text text-anchor="start" x="308.75" y="-413.6" font-family="helvetica, verdana" font-weight="bold" font-size="12.00">MathOperator</text>
<text text-anchor="start" x="251" y="-402.55" font-family="Courier,monospace" font-size="11.00" fill="purple">strategy: </text>
<text text-anchor="start" x="318.5" y="-402.55" font-family="Courier,monospace" font-size="11.00"> &#160;</text>
<text text-anchor="start" x="251" y="-391.55" font-family="Courier,monospace" font-size="11.00"> &#160;new_column_name: tax_amount &#160;</text>
<text text-anchor="start" x="251" y="-380.55" font-family="Courier,monospace" font-size="11.00"> &#160;operations: &#160;</text>
<text text-anchor="start" x="251" y="-369.55" font-family="Courier,monospace" font-size="11.00"> &#160;&#45; mul &#160;</text>
<text text-anchor="start" x="251" y="-358.55" font-family="Courier,monospace" font-size="11.00"> &#160;strategy: &#160;</text>
<text text-anchor="start" x="251" y="-347.55" font-family="Courier,monospace" font-size="11.00"> &#160;&#45; column: amount &#160;</text>
<text text-anchor="start" x="251" y="-336.55" font-family="Courier,monospace" font-size="11.00"> &#160;&#45; constant: 0.2</text>
</g>
<!-- 10&#45;&gt;11 -->
<g id="edge12" class="edge">
<title>10&#45;&gt;11</title>
<path fill="none" stroke="black" d="M355.62,-464.4C355.62,-457.43 355.62,-448.85 355.62,-439.86"/>
<polygon fill="black" stroke="black" points="359.13,-439.88 355.63,-429.88 352.13,-439.88 359.13,-439.88"/>
</g>
<!-- 11&#45;&gt;14 -->
<g id="edge16" class="edge">
<title>11&#45;&gt;14</title>
<path fill="none" stroke="black" d="M355.62,-330.6C355.62,-322.34 355.62,-314 355.62,-306.46"/>
<polygon fill="black" stroke="black" points="359.13,-306.58 355.63,-296.58 352.13,-306.58 359.13,-306.58"/>
</g>
<!-- 13 -->
<g id="node14" class="node">
<title>13</title>
<path fill="none" stroke="black" d="M699.25,-428C699.25,-428 498,-428 498,-428 492,-428 486,-422 486,-416 486,-416 486,-343 486,-343 486,-337 492,-331 498,-331 498,-331 699.25,-331 699.25,-331 705.25,-331 711.25,-337 711.25,-343 711.25,-343 711.25,-416 711.25,-416 711.25,-422 705.25,-428 699.25,-428"/>
<text text-anchor="start" x="551.75" y="-413.6" font-family="helvetica, verdana" font-weight="bold" font-size="12.00">MathOperator</text>
<text text-anchor="start" x="494" y="-402.55" font-family="Courier,monospace" font-size="11.00" fill="purple">strategy: </text>
<text text-anchor="start" x="561.5" y="-402.55" font-family="Courier,monospace" font-size="11.00"> &#160;</text>
<text text-anchor="start" x="494" y="-391.55" font-family="Courier,monospace" font-size="11.00"> &#160;new_column_name: tax_amount &#160;</text>
<text text-anchor="start" x="494" y="-380.55" font-family="Courier,monospace" font-size="11.00"> &#160;operations: &#160;</text>
<text text-anchor="start" x="494" y="-369.55" font-family="Courier,monospace" font-size="11.00"> &#160;&#45; mul &#160;</text>
<text text-anchor="start" x="494" y="-358.55" font-family="Courier,monospace" font-size="11.00"> &#160;strategy: &#160;</text>
<text text-anchor="start" x="494" y="-347.55" font-family="Courier,monospace" font-size="11.00"> &#160;&#45; column: amount &#160;</text>
<text text-anchor="start" x="494" y="-336.55" font-family="Courier,monospace" font-size="11.00"> &#160;&#45; constant: 0.08</text>
</g>
<!-- 12&#45;&gt;13 -->
<g id="edge14" class="edge">
<title>12&#45;&gt;13</title>
<path fill="none" stroke="black" d="M526.83,-464.4C533.46,-456.65 541.79,-446.92 550.4,-436.86"/>
<polygon fill="black" stroke="black" points="552.84,-439.39 556.68,-429.51 547.52,-434.84 552.84,-439.39"/>
</g>
<!-- 13&#45;&gt;14 -->
<g id="edge17" class="edge">
<title>13&#45;&gt;14</title>
<path fill="none" stroke="black" d="M485.66,-331.78C458.59,-320.58 430.95,-309.15 408.16,-299.73"/>
<polygon fill="black" stroke="black" points="409.69,-296.57 399.11,-295.99 407.02,-303.04 409.69,-296.57"/>
</g>
<!-- 15 -->
<g id="node16" class="node">
<title>15</title>
<path fill="none" stroke="black" d="M449.5,-223C449.5,-223 261.75,-223 261.75,-223 255.75,-223 249.75,-217 249.75,-211 249.75,-211 249.75,-84 249.75,-84 249.75,-78 255.75,-72 261.75,-72 261.75,-72 449.5,-72 449.5,-72 455.5,-72 461.5,-78 461.5,-84 461.5,-84 461.5,-211 461.5,-211 461.5,-217 455.5,-223 449.5,-223"/>
<text text-anchor="start" x="336.5" y="-208.6" font-family="helvetica, verdana" font-weight="bold" font-size="12.00">When</text>
<text text-anchor="start" x="257.75" y="-198.5" font-family="helvetica, verdana" font-style="italic" font-size="10.00">High&#45;value orders get priority</text>
<text text-anchor="start" x="257.75" y="-187.55" font-family="Courier,monospace" font-size="11.00" fill="purple">conditions: </text>
<text text-anchor="start" x="338.75" y="-187.55" font-family="Courier,monospace" font-size="11.00"> &#160;</text>
<text text-anchor="start" x="257.75" y="-176.55" font-family="Courier,monospace" font-size="11.00"> &#160;&#45; input_col: amount &#160;</text>
<text text-anchor="start" x="257.75" y="-165.55" font-family="Courier,monospace" font-size="11.00"> &#160;&#160;&#160;operator: ge &#160;</text>
<text text-anchor="start" x="257.75" y="-154.55" font-family="Courier,monospace" font-size="11.00"> &#160;&#160;&#160;output_constant: high &#160;</text>
<text text-anchor="start" x="257.75" y="-143.55" font-family="Courier,monospace" font-size="11.00"> &#160;&#160;&#160;value: 500 &#160;</text>
<text text-anchor="start" x="257.75" y="-132.55" font-family="Courier,monospace" font-size="11.00"> &#160;&#45; input_col: amount &#160;</text>
<text text-anchor="start" x="257.75" y="-121.55" font-family="Courier,monospace" font-size="11.00"> &#160;&#160;&#160;operator: ge &#160;</text>
<text text-anchor="start" x="257.75" y="-110.55" font-family="Courier,monospace" font-size="11.00"> &#160;&#160;&#160;output_constant: medium &#160;</text>
<text text-anchor="start" x="257.75" y="-99.55" font-family="Courier,monospace" font-size="11.00"> &#160;&#160;&#160;value: 100</text>
<text text-anchor="start" x="257.75" y="-88.55" font-family="Courier,monospace" font-size="11.00" fill="purple">otherwise_constant: </text>
<text text-anchor="start" x="392.75" y="-88.55" font-family="Courier,monospace" font-size="11.00">standard</text>
<text text-anchor="start" x="257.75" y="-77.55" font-family="Courier,monospace" font-size="11.00" fill="purple">output_col: </text>
<text text-anchor="start" x="338.75" y="-77.55" font-family="Courier,monospace" font-size="11.00">priority</text>
</g>
<!-- 14&#45;&gt;15 -->
<g id="edge18" class="edge">
<title>14&#45;&gt;15</title>
<path fill="none" stroke="black" d="M355.62,-258.54C355.62,-251.75 355.62,-243.44 355.62,-234.46"/>
<polygon fill="black" stroke="black" points="359.13,-234.75 355.63,-224.75 352.13,-234.75 359.13,-234.75"/>
</g>
<!-- 16 -->
<g id="node17" class="node">
<title>16</title>
<ellipse fill="none" stroke="blue" cx="355.62" cy="-18" rx="50.07" ry="18"/>
<text text-anchor="middle" x="355.62" y="-14.47" font-family="helvetica, verdana" font-size="12.00">DF output</text>
</g>
<!-- 15&#45;&gt;16 -->
<g id="edge19" class="edge">
<title>15&#45;&gt;16</title>
<path fill="none" stroke="black" d="M355.62,-71.6C355.62,-63.12 355.62,-54.92 355.62,-47.61"/>
<polygon fill="black" stroke="black" points="359.13,-47.79 355.63,-37.79 352.13,-47.79 359.13,-47.79"/>
</g>
</g>
</svg>
